<svg width="135" height="154" viewBox="0 0 135 154" fill="none" xmlns="http://www.w3.org/2000/svg">
<path d="M23.3035 0C24.2898 0.77175 28.6045 6.921 29.6813 8.363L47.2711 31.8585C57.1771 45.0332 67.163 58.1477 77.2285 71.201C85.7095 81.9782 94.0813 92.8413 102.343 103.788C113.671 119.062 123.397 133.626 134.208 149.055C125.957 145.102 109.873 140.614 100.943 138.714C88.5603 135.998 57.5691 132.074 46.2638 137.315C44.1426 138.298 42.0923 139.781 41.3031 142.077C40.0523 145.714 42.0543 149.867 43.6688 153.075C24.1998 135.429 8.15179 116.039 2.19879 89.608C-4.99946 57.647 6.37054 26.7302 23.3035 0Z" fill="#403FEC"/>
</svg>
